<?xml version="1.0" encoding="UTF-8" standalone="no"?>
<!-- Created with Inkscape (http://www.inkscape.org/) -->
<svg
   xmlns:dc="http://purl.org/dc/elements/1.1/"
   xmlns:cc="http://creativecommons.org/ns#"
   xmlns:rdf="http://www.w3.org/1999/02/22-rdf-syntax-ns#"
   xmlns:svg="http://www.w3.org/2000/svg"
   xmlns="http://www.w3.org/2000/svg"
   xmlns:sodipodi="http://sodipodi.sourceforge.net/DTD/sodipodi-0.dtd"
   xmlns:inkscape="http://www.inkscape.org/namespaces/inkscape"
   id="svg2"
   sodipodi:version="0.32"
   inkscape:version="0.46dev+devel"
   width="1235.4683"
   height="1175.0001"
   version="1.0"
   sodipodi:docbase="C:\Documents and Settings\xy\Bureau"
   sodipodi:docname="URSS_aviation_Kremlin_red_star.svg"
   inkscape:output_extension="org.inkscape.output.svg.inkscape">
  <metadata
     id="metadata7">
    <rdf:RDF>
      <cc:Work
         rdf:about="">
        <dc:format>image/svg+xml</dc:format>
        <dc:type
           rdf:resource="http://purl.org/dc/dcmitype/StillImage" />
      </cc:Work>
    </rdf:RDF>
  </metadata>
  <defs
     id="defs5">
    <inkscape:perspective
       sodipodi:type="inkscape:persp3d"
       id="perspective25"
       inkscape:vp_x="-50 : 600 : 1"
       inkscape:vp_y="0 : 1000 : 0"
       inkscape:vp_z="700 : 600 : 1"
       inkscape:persp3d-origin="300 : 400 : 1" />
    <inkscape:perspective
       inkscape:persp3d-origin="300 : 400 : 1"
       inkscape:vp_z="700 : 600 : 1"
       inkscape:vp_y="0 : 1000 : 0"
       inkscape:vp_x="-50 : 600 : 1"
       id="perspective2518"
       sodipodi:type="inkscape:persp3d" />
  </defs>
  <sodipodi:namedview
     inkscape:window-height="1003"
     inkscape:window-width="1280"
     inkscape:pageshadow="2"
     inkscape:pageopacity="0.0"
     borderopacity="1.0"
     bordercolor="#666666"
     pagecolor="#ffffff"
     id="base"
     inkscape:zoom="0.14375"
     inkscape:cx="506.69692"
     inkscape:cy="-495.57465"
     inkscape:window-x="-4"
     inkscape:window-y="-4"
     inkscape:current-layer="svg2"
     width="1919.04px"
     height="1825.46px"
     showgrid="false"
     inkscape:showpageshadow="false" />
  <g
     transform="matrix(0.3817807,-1.1750001,1.1750001,0.3817807,-3062.767,-459.1341)"
     id="g3069">
    <path
       sodipodi:nodetypes="cccc"
       id="path3071"
       d="M 376.15009,3535.8536 L -432.86689,2948.0683 L 59.809394,3120.6084 L 376.15009,3535.8536 z"
       style="fill:#111;fill-opacity:1;fill-rule:nonzero;stroke:none;stroke-width:2;stroke-linecap:round;stroke-linejoin:round;stroke-miterlimit:4;stroke-dasharray:none;stroke-dashoffset:0;stroke-opacity:1" />
    <path
       style="fill:#111;fill-opacity:1;fill-rule:nonzero;stroke:none;stroke-width:2;stroke-linecap:round;stroke-linejoin:round;stroke-miterlimit:4;stroke-dasharray:none;stroke-dashoffset:0;stroke-opacity:1"
       d="M 567.13309,2948.0683 L -432.86689,2948.0683 L 59.754594,3133.7311 L 567.13309,2948.0683 z"
       id="path3073"
       sodipodi:nodetypes="cccc" />
    <path
       style="fill:#111;fill-opacity:1;fill-rule:nonzero;stroke:none;stroke-width:2;stroke-linecap:round;stroke-linejoin:round;stroke-miterlimit:4;stroke-dasharray:none;stroke-dashoffset:0;stroke-opacity:1"
       d="M -241.88386,3535.8536 L 567.13309,2948.0683 L 58.470094,3089.8646 L -241.88386,3535.8536 z"
       id="path3075"
       sodipodi:nodetypes="cccc" />
    <path
       sodipodi:nodetypes="cccc"
       id="path3077"
       d="M 376.15009,3535.8536 L 67.133094,2584.7971 L 15.036094,3128.8134 L 376.15009,3535.8536 z"
       style="fill:#111;fill-opacity:1;fill-rule:nonzero;stroke:none;stroke-width:2;stroke-linecap:round;stroke-linejoin:round;stroke-miterlimit:4;stroke-dasharray:none;stroke-dashoffset:0;stroke-opacity:1" />
    <path
       style="fill:#111;fill-opacity:1;fill-rule:nonzero;stroke:none;stroke-width:2;stroke-linecap:round;stroke-linejoin:round;stroke-miterlimit:4;stroke-dasharray:none;stroke-dashoffset:0;stroke-opacity:1"
       d="M -241.88389,3535.8536 L 67.133094,2584.7971 L 99.554094,3123.8944 L -241.88389,3535.8536 z"
       id="path3079"
       sodipodi:nodetypes="cccc" />
  </g>
  <g
     transform="matrix(0.3525378,-1.0849999,1.0849999,0.3525378,-2780.8557,-374.2118)"
     id="g3057"
     style="fill:#111">
    <path
       sodipodi:nodetypes="cccc"
       id="path3059"
       d="M 376.15009,3535.8536 L -432.86689,2948.0683 L 59.809394,3120.6084 L 376.15009,3535.8536 z"
       style="fill:#111;fill-opacity:1;fill-rule:nonzero;stroke:none;stroke-width:2;stroke-linecap:round;stroke-linejoin:round;stroke-miterlimit:4;stroke-dasharray:none;stroke-dashoffset:0;stroke-opacity:1" />
    <path
       style="fill:#111;fill-opacity:1;fill-rule:nonzero;stroke:none;stroke-width:2;stroke-linecap:round;stroke-linejoin:round;stroke-miterlimit:4;stroke-dasharray:none;stroke-dashoffset:0;stroke-opacity:1"
       d="M 567.13309,2948.0683 L -432.86689,2948.0683 L 59.754594,3133.7311 L 567.13309,2948.0683 z"
       id="path3061"
       sodipodi:nodetypes="cccc" />
    <path
       style="fill:#111;fill-opacity:1;fill-rule:nonzero;stroke:none;stroke-width:2;stroke-linecap:round;stroke-linejoin:round;stroke-miterlimit:4;stroke-dasharray:none;stroke-dashoffset:0;stroke-opacity:1"
       d="M -241.88386,3535.8536 L 567.13309,2948.0683 L 58.470094,3089.8646 L -241.88386,3535.8536 z"
       id="path3063"
       sodipodi:nodetypes="cccc" />
    <path
       sodipodi:nodetypes="cccc"
       id="path3065"
       d="M 376.15009,3535.8536 L 67.133094,2584.7971 L 15.036094,3128.8134 L 376.15009,3535.8536 z"
       style="fill:#111;fill-opacity:1;fill-rule:nonzero;stroke:none;stroke-width:2;stroke-linecap:round;stroke-linejoin:round;stroke-miterlimit:4;stroke-dasharray:none;stroke-dashoffset:0;stroke-opacity:1" />
    <path
       style="fill:#111;fill-opacity:1;fill-rule:nonzero;stroke:none;stroke-width:2;stroke-linecap:round;stroke-linejoin:round;stroke-miterlimit:4;stroke-dasharray:none;stroke-dashoffset:0;stroke-opacity:1"
       d="M -241.88389,3535.8536 L 67.133094,2584.7971 L 99.554094,3123.8944 L -241.88389,3535.8536 z"
       id="path3067"
       sodipodi:nodetypes="cccc" />
  </g>
  <g
     id="g3050"
     transform="matrix(0.2761818,-0.85,0.85,0.2761818,-2044.7558,-152.4717)">
    <path
       style="fill:#272727;fill-opacity:1;fill-rule:nonzero;stroke:none;stroke-width:2;stroke-linecap:round;stroke-linejoin:round;stroke-miterlimit:4;stroke-dasharray:none;stroke-dashoffset:0;stroke-opacity:1"
       d="M 376.15009,3535.8536 L -432.86689,2948.0683 L 59.809394,3120.6084 L 376.15009,3535.8536 z"
       id="path3036"
       sodipodi:nodetypes="cccc" />
    <path
       sodipodi:nodetypes="cccc"
       id="path3038"
       d="M 567.13309,2948.0683 L -432.86689,2948.0683 L 59.754594,3133.7311 L 567.13309,2948.0683 z"
       style="fill:#272727;fill-opacity:1;fill-rule:nonzero;stroke:none;stroke-width:2;stroke-linecap:round;stroke-linejoin:round;stroke-miterlimit:4;stroke-dasharray:none;stroke-dashoffset:0;stroke-opacity:1" />
    <path
       sodipodi:nodetypes="cccc"
       id="path3040"
       d="M -241.88386,3535.8536 L 567.13309,2948.0683 L 58.470094,3089.8646 L -241.88386,3535.8536 z"
       style="fill:#272727;fill-opacity:1;fill-rule:nonzero;stroke:none;stroke-width:2;stroke-linecap:round;stroke-linejoin:round;stroke-miterlimit:4;stroke-dasharray:none;stroke-dashoffset:0;stroke-opacity:1" />
    <path
       style="fill:#272727;fill-opacity:1;fill-rule:nonzero;stroke:none;stroke-width:2;stroke-linecap:round;stroke-linejoin:round;stroke-miterlimit:4;stroke-dasharray:none;stroke-dashoffset:0;stroke-opacity:1"
       d="M 376.15009,3535.8536 L 67.133094,2584.7971 L 15.036094,3128.8134 L 376.15009,3535.8536 z"
       id="path3042"
       sodipodi:nodetypes="cccc" />
    <path
       sodipodi:nodetypes="cccc"
       id="path3044"
       d="M -241.88389,3535.8536 L 67.133094,2584.7971 L 99.554094,3123.8944 L -241.88389,3535.8536 z"
       style="fill:#272727;fill-opacity:1;fill-rule:nonzero;stroke:none;stroke-width:2;stroke-linecap:round;stroke-linejoin:round;stroke-miterlimit:4;stroke-dasharray:none;stroke-dashoffset:0;stroke-opacity:1" />
  </g>
  <g
     transform="matrix(2.2024817,0,0,2.2024817,-424.6997,2163.4502)"
     id="g2512" />
  <g
     transform="matrix(2.2024817,0,0,2.2024817,-424.6997,2163.4502)"
     id="g2514" />
  <g
     transform="matrix(2.2024817,0,0,2.2024817,-2943.1284,4280.1561)"
     id="g2516" />
  <g
     transform="matrix(2.2024817,0,0,2.2024817,-2943.1284,4280.1561)"
     id="g2518" />
  <g
     transform="matrix(2.2024817,0,0,2.2024817,2298.574,2171.0828)"
     id="g2562" />
  <g
     transform="matrix(2.2024817,0,0,2.2024817,2298.574,2171.0828)"
     id="g2564" />
  <g
     transform="matrix(2.2024817,0,0,2.2024817,-219.85473,4287.7887)"
     id="g2566" />
  <g
     transform="matrix(2.2024817,0,0,2.2024817,-219.85473,4287.7887)"
     id="g2568" />
  <g
     transform="matrix(2.2024817,0,0,2.2024817,-424.6997,2163.4502)"
     id="g5405" />
  <g
     transform="matrix(2.2024817,0,0,2.2024817,-424.6997,2163.4502)"
     id="g8230" />
  <g
     transform="matrix(2.2024817,0,0,2.2024817,-2943.1284,4280.1561)"
     id="g8616" />
  <g
     transform="matrix(2.2024817,0,0,2.2024817,-2943.1284,4280.1561)"
     id="g8621" />
  <g
     transform="matrix(2.2024817,0,0,2.2024817,2298.574,2171.0828)"
     id="g2388" />
  <g
     transform="matrix(2.2024817,0,0,2.2024817,2298.574,2171.0828)"
     id="g2390" />
  <g
     transform="matrix(2.2024817,0,0,2.2024817,-219.85473,4287.7887)"
     id="g2392" />
  <g
     transform="matrix(2.2024817,0,0,2.2024817,-219.85473,4287.7887)"
     id="g2394" />
  <g
     id="g3591"
     transform="matrix(1.7892079,0,0,1.7892079,-23114.914,-5378.0007)" />
  <g
     id="g3597"
     transform="matrix(-1.7892079,0,0,1.7892079,-21253.675,-5378.0007)" />
  <g
     transform="matrix(2.2024817,0,0,2.2024817,-8927.3732,2639.7815)"
     id="g19250" />
  <g
     transform="matrix(2.2024817,0,0,2.2024817,-8927.3732,2639.7815)"
     id="g19252" />
  <g
     transform="matrix(2.2024817,0,0,2.2024817,-11445.802,4756.4874)"
     id="g19254" />
  <g
     transform="matrix(2.2024817,0,0,2.2024817,-11445.802,4756.4874)"
     id="g19256" />
  <g
     transform="matrix(11.818089,0,0,11.818089,-7530.3304,-9628.3064)"
     id="g21645" />
  <g
     transform="matrix(2.2024817,0,0,2.2024817,3139.0224,4462.2524)"
     id="g33103" />
  <g
     transform="matrix(2.2024817,0,0,2.2024817,3139.0224,4462.2524)"
     id="g33105" />
  <g
     transform="matrix(2.2024817,0,0,2.2024817,620.59363,6578.9583)"
     id="g33107" />
  <g
     transform="matrix(2.2024817,0,0,2.2024817,620.59363,6578.9583)"
     id="g33109" />
  <g
     transform="matrix(2.2024817,0,0,2.2024817,5862.296,4469.885)"
     id="g33111" />
  <g
     transform="matrix(2.2024817,0,0,2.2024817,5862.296,4469.885)"
     id="g33113" />
  <g
     transform="matrix(2.2024817,0,0,2.2024817,3343.8673,6586.5909)"
     id="g33115" />
  <g
     transform="matrix(2.2024817,0,0,2.2024817,3343.8673,6586.5909)"
     id="g33117" />
  <g
     transform="matrix(2.2024817,0,0,2.2024817,3139.0224,4462.2524)"
     id="g33119" />
  <g
     transform="matrix(2.2024817,0,0,2.2024817,3139.0224,4462.2524)"
     id="g33121" />
  <g
     transform="matrix(2.2024817,0,0,2.2024817,620.59363,6578.9583)"
     id="g33123" />
  <g
     transform="matrix(2.2024817,0,0,2.2024817,620.59363,6578.9583)"
     id="g33125" />
  <g
     transform="matrix(2.2024817,0,0,2.2024817,5862.296,4469.885)"
     id="g33127" />
  <g
     transform="matrix(2.2024817,0,0,2.2024817,5862.296,4469.885)"
     id="g33129" />
  <g
     transform="matrix(2.2024817,0,0,2.2024817,3343.8673,6586.5909)"
     id="g33131" />
  <g
     transform="matrix(2.2024817,0,0,2.2024817,3343.8673,6586.5909)"
     id="g33133" />
  <g
     id="g33135"
     transform="matrix(1.7892079,0,0,1.7892079,-19551.191,-3079.1985)" />
  <g
     id="g33137"
     transform="matrix(-1.7892079,0,0,1.7892079,-17689.952,-3079.1985)" />
  <g
     transform="matrix(2.2024817,0,0,2.2024817,-5363.6512,4938.5837)"
     id="g33139" />
  <g
     transform="matrix(2.2024817,0,0,2.2024817,-5363.6512,4938.5837)"
     id="g33141" />
  <g
     transform="matrix(2.2024817,0,0,2.2024817,-7882.0799,7055.2896)"
     id="g33143" />
  <g
     transform="matrix(2.2024817,0,0,2.2024817,-7882.0799,7055.2896)"
     id="g33145" />
  <g
     transform="matrix(11.818089,0,0,11.818089,-3966.6084,-7329.5042)"
     id="g33147" />
  <g
     transform="matrix(2.2024817,0,0,2.2024817,5309.5492,2194.1665)"
     id="g3740" />
  <g
     transform="matrix(2.2024817,0,0,2.2024817,5309.5492,2194.1665)"
     id="g3742" />
  <g
     transform="matrix(2.2024817,0,0,2.2024817,2791.1205,4310.8724)"
     id="g3744" />
  <g
     transform="matrix(2.2024817,0,0,2.2024817,2791.1205,4310.8724)"
     id="g3746" />
  <g
     transform="matrix(2.2024817,0,0,2.2024817,8032.8229,2201.7991)"
     id="g3748" />
  <g
     transform="matrix(2.2024817,0,0,2.2024817,8032.8229,2201.7991)"
     id="g3750" />
  <g
     transform="matrix(2.2024817,0,0,2.2024817,5514.3942,4318.505)"
     id="g3752" />
  <g
     transform="matrix(2.2024817,0,0,2.2024817,5514.3942,4318.505)"
     id="g3754" />
  <g
     transform="matrix(2.2024817,0,0,2.2024817,5309.5492,2194.1665)"
     id="g3756" />
  <g
     transform="matrix(2.2024817,0,0,2.2024817,5309.5492,2194.1665)"
     id="g3758" />
  <g
     transform="matrix(2.2024817,0,0,2.2024817,2791.1205,4310.8724)"
     id="g3760" />
  <g
     transform="matrix(2.2024817,0,0,2.2024817,2791.1205,4310.8724)"
     id="g3762" />
  <g
     transform="matrix(2.2024817,0,0,2.2024817,8032.8229,2201.7991)"
     id="g3764" />
  <g
     transform="matrix(2.2024817,0,0,2.2024817,8032.8229,2201.7991)"
     id="g3766" />
  <g
     transform="matrix(2.2024817,0,0,2.2024817,5514.3942,4318.505)"
     id="g3768" />
  <g
     transform="matrix(2.2024817,0,0,2.2024817,5514.3942,4318.505)"
     id="g3770" />
  <g
     id="g3772"
     transform="matrix(1.7892079,0,0,1.7892079,-17380.665,-5347.2844)" />
  <g
     id="g3774"
     transform="matrix(-1.7892079,0,0,1.7892079,-15519.426,-5347.2844)" />
  <g
     transform="matrix(2.2024817,0,0,2.2024817,-3193.1243,2670.4978)"
     id="g3776" />
  <g
     transform="matrix(2.2024817,0,0,2.2024817,-3193.1243,2670.4978)"
     id="g3778" />
  <g
     transform="matrix(2.2024817,0,0,2.2024817,-5711.553,4787.2037)"
     id="g3780" />
  <g
     transform="matrix(2.2024817,0,0,2.2024817,-5711.553,4787.2037)"
     id="g3782" />
  <g
     transform="matrix(11.818089,0,0,11.818089,-1796.0815,-9597.5901)"
     id="g3784" />
  <g
     transform="matrix(2.2024817,0,0,2.2024817,3392.1919,3209.0293)"
     id="g9663" />
  <g
     transform="matrix(2.2024817,0,0,2.2024817,3392.1919,3209.0293)"
     id="g9665" />
  <g
     transform="matrix(2.2024817,0,0,2.2024817,873.76322,5325.7352)"
     id="g9667" />
  <g
     transform="matrix(2.2024817,0,0,2.2024817,873.76322,5325.7352)"
     id="g9669" />
  <g
     transform="matrix(2.2024817,0,0,2.2024817,6115.4656,3216.6619)"
     id="g9671" />
  <g
     transform="matrix(2.2024817,0,0,2.2024817,6115.4656,3216.6619)"
     id="g9673" />
  <g
     transform="matrix(2.2024817,0,0,2.2024817,3597.0369,5333.3678)"
     id="g9675" />
  <g
     transform="matrix(2.2024817,0,0,2.2024817,3597.0369,5333.3678)"
     id="g9677" />
  <g
     transform="matrix(2.2024817,0,0,2.2024817,3392.1919,3209.0293)"
     id="g9679" />
  <g
     transform="matrix(2.2024817,0,0,2.2024817,3392.1919,3209.0293)"
     id="g9681" />
  <g
     transform="matrix(2.2024817,0,0,2.2024817,873.76322,5325.7352)"
     id="g9683" />
  <g
     transform="matrix(2.2024817,0,0,2.2024817,873.76322,5325.7352)"
     id="g9685" />
  <g
     transform="matrix(2.2024817,0,0,2.2024817,6115.4656,3216.6619)"
     id="g9687" />
  <g
     transform="matrix(2.2024817,0,0,2.2024817,6115.4656,3216.6619)"
     id="g9689" />
  <g
     transform="matrix(2.2024817,0,0,2.2024817,3597.0369,5333.3678)"
     id="g9691" />
  <g
     transform="matrix(2.2024817,0,0,2.2024817,3597.0369,5333.3678)"
     id="g9693" />
  <g
     id="g9695"
     transform="matrix(1.7892079,0,0,1.7892079,-19298.022,-4332.4216)" />
  <g
     id="g9697"
     transform="matrix(-1.7892079,0,0,1.7892079,-17436.783,-4332.4216)" />
  <g
     transform="matrix(2.2024817,0,0,2.2024817,-5110.4816,3685.3606)"
     id="g9699" />
  <g
     transform="matrix(2.2024817,0,0,2.2024817,-5110.4816,3685.3606)"
     id="g9701" />
  <g
     transform="matrix(2.2024817,0,0,2.2024817,-7628.9103,5802.0665)"
     id="g9703" />
  <g
     transform="matrix(2.2024817,0,0,2.2024817,-7628.9103,5802.0665)"
     id="g9705" />
  <g
     transform="matrix(11.818089,0,0,11.818089,-3713.4388,-8582.7273)"
     id="g9707" />
  <g
     transform="matrix(2.2024817,0,0,2.2024817,6024.9653,5710.1558)"
     id="g2786" />
  <g
     transform="matrix(2.2024817,0,0,2.2024817,6024.9653,5710.1558)"
     id="g2788" />
  <g
     transform="matrix(2.2024817,0,0,2.2024817,3506.5366,7826.8617)"
     id="g2790" />
  <g
     transform="matrix(2.2024817,0,0,2.2024817,3506.5366,7826.8617)"
     id="g2792" />
  <g
     transform="matrix(2.2024817,0,0,2.2024817,8748.239,5717.7884)"
     id="g2794" />
  <g
     transform="matrix(2.2024817,0,0,2.2024817,8748.239,5717.7884)"
     id="g2796" />
  <g
     transform="matrix(2.2024817,0,0,2.2024817,6229.8102,7834.4943)"
     id="g2798" />
  <g
     transform="matrix(2.2024817,0,0,2.2024817,6229.8102,7834.4943)"
     id="g2800" />
  <g
     transform="matrix(2.2024817,0,0,2.2024817,6024.9653,5710.1558)"
     id="g2804" />
  <g
     transform="matrix(2.2024817,0,0,2.2024817,6024.9653,5710.1558)"
     id="g2806" />
  <g
     transform="matrix(2.2024817,0,0,2.2024817,3506.5366,7826.8617)"
     id="g2808" />
  <g
     transform="matrix(2.2024817,0,0,2.2024817,3506.5366,7826.8617)"
     id="g2810" />
  <g
     transform="matrix(2.2024817,0,0,2.2024817,8748.239,5717.7884)"
     id="g2812" />
  <g
     transform="matrix(2.2024817,0,0,2.2024817,8748.239,5717.7884)"
     id="g2814" />
  <g
     transform="matrix(2.2024817,0,0,2.2024817,6229.8102,7834.4943)"
     id="g2816" />
  <g
     transform="matrix(2.2024817,0,0,2.2024817,6229.8102,7834.4943)"
     id="g2818" />
  <g
     transform="matrix(2.2024817,0,0,2.2024817,2941.8775,3949.0356)"
     id="g5282" />
  <g
     transform="matrix(2.2024817,0,0,2.2024817,2941.8775,3949.0356)"
     id="g5284" />
  <g
     transform="matrix(2.2024817,0,0,2.2024817,423.44876,6065.7415)"
     id="g5286" />
  <g
     transform="matrix(2.2024817,0,0,2.2024817,423.44876,6065.7415)"
     id="g5288" />
  <g
     transform="matrix(2.2024817,0,0,2.2024817,5665.1512,3956.6682)"
     id="g5290" />
  <g
     transform="matrix(2.2024817,0,0,2.2024817,5665.1512,3956.6682)"
     id="g5292" />
  <g
     transform="matrix(2.2024817,0,0,2.2024817,3146.7224,6073.3741)"
     id="g5294" />
  <g
     transform="matrix(2.2024817,0,0,2.2024817,3146.7224,6073.3741)"
     id="g5296" />
  <g
     transform="matrix(2.2024817,0,0,2.2024817,2941.8775,3949.0356)"
     id="g5302" />
  <g
     transform="matrix(2.2024817,0,0,2.2024817,2941.8775,3949.0356)"
     id="g5304" />
  <g
     transform="matrix(2.2024817,0,0,2.2024817,423.44876,6065.7415)"
     id="g5306" />
  <g
     transform="matrix(2.2024817,0,0,2.2024817,423.44876,6065.7415)"
     id="g5308" />
  <g
     transform="matrix(2.2024817,0,0,2.2024817,5665.1512,3956.6682)"
     id="g5310" />
  <g
     transform="matrix(2.2024817,0,0,2.2024817,5665.1512,3956.6682)"
     id="g5312" />
  <g
     transform="matrix(2.2024817,0,0,2.2024817,3146.7224,6073.3741)"
     id="g5314" />
  <g
     transform="matrix(2.2024817,0,0,2.2024817,3146.7224,6073.3741)"
     id="g5316" />
  <g
     transform="matrix(2.2024817,0,0,2.2024817,2691.0049,2707.2962)"
     id="g10856" />
  <g
     transform="matrix(2.2024817,0,0,2.2024817,2691.0049,2707.2962)"
     id="g10858" />
  <g
     transform="matrix(2.2024817,0,0,2.2024817,172.57614,4824.0021)"
     id="g10860" />
  <g
     transform="matrix(2.2024817,0,0,2.2024817,172.57614,4824.0021)"
     id="g10862" />
  <g
     transform="matrix(2.2024817,0,0,2.2024817,5414.2786,2714.9288)"
     id="g10864" />
  <g
     transform="matrix(2.2024817,0,0,2.2024817,5414.2786,2714.9288)"
     id="g10866" />
  <g
     transform="matrix(2.2024817,0,0,2.2024817,2895.8498,4831.6347)"
     id="g10868" />
  <g
     transform="matrix(2.2024817,0,0,2.2024817,2895.8498,4831.6347)"
     id="g10870" />
  <g
     transform="matrix(2.2024817,0,0,2.2024817,2691.0049,2707.2962)"
     id="g10874" />
  <g
     transform="matrix(2.2024817,0,0,2.2024817,2691.0049,2707.2962)"
     id="g10876" />
  <g
     transform="matrix(2.2024817,0,0,2.2024817,172.57614,4824.0021)"
     id="g10878" />
  <g
     transform="matrix(2.2024817,0,0,2.2024817,172.57614,4824.0021)"
     id="g10880" />
  <g
     transform="matrix(2.2024817,0,0,2.2024817,5414.2786,2714.9288)"
     id="g10882" />
  <g
     transform="matrix(2.2024817,0,0,2.2024817,5414.2786,2714.9288)"
     id="g10884" />
  <g
     transform="matrix(2.2024817,0,0,2.2024817,2895.8498,4831.6347)"
     id="g10886" />
  <g
     transform="matrix(2.2024817,0,0,2.2024817,2895.8498,4831.6347)"
     id="g10888" />
  <g
     transform="matrix(2.2024817,0,0,2.2024817,-424.6997,2228.6344)"
     id="g14352" />
  <g
     transform="matrix(2.2024817,0,0,2.2024817,-424.6997,2228.6344)"
     id="g14354" />
  <g
     transform="matrix(2.2024817,0,0,2.2024817,-2943.1284,4345.3403)"
     id="g14356" />
  <g
     transform="matrix(2.2024817,0,0,2.2024817,-2943.1284,4345.3403)"
     id="g14358" />
  <g
     transform="matrix(2.2024817,0,0,2.2024817,2298.574,2236.267)"
     id="g14360" />
  <g
     transform="matrix(2.2024817,0,0,2.2024817,2298.574,2236.267)"
     id="g14362" />
  <g
     transform="matrix(2.2024817,0,0,2.2024817,-219.85473,4352.9729)"
     id="g14364" />
  <g
     transform="matrix(2.2024817,0,0,2.2024817,-219.85473,4352.9729)"
     id="g14366" />
  <g
     transform="matrix(2.2024817,0,0,2.2024817,-424.6997,2228.6344)"
     id="g14370" />
  <g
     transform="matrix(2.2024817,0,0,2.2024817,-424.6997,2228.6344)"
     id="g14372" />
  <g
     transform="matrix(2.2024817,0,0,2.2024817,-2943.1284,4345.3403)"
     id="g14374" />
  <g
     transform="matrix(2.2024817,0,0,2.2024817,-2943.1284,4345.3403)"
     id="g14376" />
  <g
     transform="matrix(2.2024817,0,0,2.2024817,2298.574,2236.267)"
     id="g14378" />
  <g
     transform="matrix(2.2024817,0,0,2.2024817,2298.574,2236.267)"
     id="g14380" />
  <g
     transform="matrix(2.2024817,0,0,2.2024817,-219.85473,4352.9729)"
     id="g14382" />
  <g
     transform="matrix(2.2024817,0,0,2.2024817,-219.85473,4352.9729)"
     id="g14384" />
  <path
     style="fill:#272727;fill-opacity:1;fill-rule:nonzero;stroke:none;stroke-width:11.09700012000000100;stroke-linecap:round;stroke-linejoin:round;stroke-miterlimit:4;stroke-dasharray:none;stroke-dashoffset:0;stroke-opacity:1"
     d="M 617.73412,649.90912 L 617.73412,829.02703 L 893.61263,1029.5652 L 617.73412,649.90912 z"
     id="path2341" />
  <path
     id="path2356"
     d="M 617.73412,649.90912 L 341.8556,1029.5652 L 447.11046,705.30641 L 617.73412,649.90912 z"
     style="fill:#272727;fill-opacity:1;fill-rule:nonzero;stroke:none;stroke-width:11.09700012000000100;stroke-linecap:round;stroke-linejoin:round;stroke-miterlimit:4;stroke-dasharray:none;stroke-dashoffset:0;stroke-opacity:1" />
  <path
     id="path2371"
     d="M 617.73412,179.77077 L 723.35829,504.3989 L 617.73412,649.90912 L 617.73412,179.77077 z"
     style="fill:#272727;fill-opacity:1;fill-rule:nonzero;stroke:none;stroke-width:11.09700012000000100;stroke-linecap:round;stroke-linejoin:round;stroke-miterlimit:4;stroke-dasharray:none;stroke-dashoffset:0;stroke-opacity:1" />
  <path
     style="fill:#272727;fill-opacity:1;fill-rule:nonzero;stroke:none;stroke-width:11.09700012000000100;stroke-linecap:round;stroke-linejoin:round;stroke-miterlimit:4;stroke-dasharray:none;stroke-dashoffset:0;stroke-opacity:1"
     d="M 1064.6056,504.3989 L 617.73412,649.90912 L 788.35778,705.30641 L 1064.6056,504.3989 z"
     id="path2375"
     sodipodi:nodetypes="cccc" />
  <path
     sodipodi:nodetypes="cccc"
     id="path2389"
     d="M 512.10995,504.3989 L 617.73412,649.90912 L 170.86263,504.3989 L 512.10995,504.3989 z"
     style="fill:#272727;fill-opacity:1;fill-rule:nonzero;stroke:none;stroke-width:11.09700012000000100;stroke-linecap:round;stroke-linejoin:round;stroke-miterlimit:4;stroke-dasharray:none;stroke-dashoffset:0;stroke-opacity:1" />
</svg>